<svg viewBox="0 0 400 400" xmlns="http://www.w3.org/2000/svg" id="Brush-Painting--Streamline-Ux.svg" height="400" width="400"><desc>Brush Painting Streamline Illustration: https://streamlinehq.com</desc><path d="M4 200C4 345.6156 161.6336 436.6256 287.7404 363.8176C346.2668 330.0276 382.3208 267.5804 382.3208 200C382.3208 54.3844 224.6872 -36.6256 98.58 36.1824C40.0536 69.9724 4 132.4196 4 200Z" fill="#d9edff" stroke-width="1"></path><path d="M336.2884 291.6576L248.6648 315.9316H22.06C13.01 315.9408 7.3436 306.1496 11.8608 298.3076C12.086 297.9168 12.3336 297.5388 12.602 297.1764L62.7816 229.476C65.0016 226.48 68.5108 224.7148 72.2396 224.7184H280.7888C284.518 224.7132 288.028 226.4788 290.2468 229.476Z" fill="#ffffff" stroke="#020064" stroke-linecap="round" stroke-linejoin="round" stroke-width="1"></path><path d="M336.2884 291.6576L248.6648 315.9316C276.126 307.8924 285.7072 291.4164 288.7856 278.2744C290.6788 270.2016 300.11 266.5728 306.926 271.2944Z" fill="#b0d9ff" stroke="#020064" stroke-linecap="round" stroke-linejoin="round" stroke-width="1"></path><path d="M236.336 199.5272C233.7792 197.5264 233.328 193.832 235.3288 191.2748L257.0588 163.5064L284.8276 185.236L263.0976 213.0048C261.0972 215.562 257.4024 216.0128 254.8456 214.012Z" fill="#b0d9ff" stroke-width="1"></path><path d="M236.336 199.5272C233.7792 197.5264 233.328 193.832 235.3288 191.2748L257.0588 163.5064L284.8276 185.236L263.0976 213.0048C261.0972 215.562 257.4024 216.0128 254.8456 214.012Z" fill="none" stroke="#020064" stroke-linecap="round" stroke-linejoin="round" stroke-width="1"></path><path d="M257.0588 163.5064L362.0948 29.2828C368.0956 21.6168 379.1748 20.266 386.8416 26.2656C394.5344 32.2584 395.8992 43.3588 389.8872 51.0364L284.8276 185.236Z" fill="#ffffff" stroke-width="1"></path><path d="M257.0588 163.5064L362.0948 29.2828C368.0956 21.6168 379.1748 20.266 386.8416 26.2656H386.8416C394.5344 32.2584 395.8992 43.3588 389.8872 51.0364L284.8276 185.236Z" fill="none" stroke="#020064" stroke-linecap="round" stroke-linejoin="round" stroke-width="1"></path><path d="M177.2188 256.3084C175.0196 256.832 174.2124 259.54 175.7656 261.1828C176.074 261.5088 176.4532 261.76 176.8736 261.9168C225.2184 280.0812 247 252.648 247 252.648C257.004 239.868 254.7512 221.3976 241.9684 211.3968C229.2 201.3952 212.5304 201.3336 202.5284 214.116C196.5672 222.3148 197.0696 233.5468 203.7392 241.1804C209.622 248.2124 188.578 253.5704 188.578 253.5704Z" fill="#ffffff" stroke-width="1"></path><path d="M177.2188 256.3084C175.0196 256.832 174.2124 259.54 175.7656 261.1828C176.074 261.5088 176.4532 261.76 176.8736 261.9168C225.2184 280.0812 247 252.648 247 252.648C257.004 239.868 254.7512 221.3976 241.9684 211.3968C229.2 201.3952 212.5304 201.3336 202.5284 214.116C196.5672 222.3148 197.0696 233.5468 203.7392 241.1804C209.622 248.2124 188.578 253.5704 188.578 253.5704Z" fill="none" stroke="#020064" stroke-linecap="round" stroke-linejoin="round" stroke-width="1"></path><path d="M210.2888 289.6524C210.29 291.4052 208.9004 292.8428 207.1488 292.9016C187.4052 293.5728 81.5464 295.928 86.876 269.2564C92.0776 243.2468 189.5332 244.8688 211.7216 245.5828C214.2088 245.662 216.1848 247.7004 216.186 250.1892V264.4092C216.1892 267.0444 213.9848 269.1452 211.3528 269.0152C190.64 268.0316 110.4028 264.8964 110.4028 275.1344C110.4028 285.7228 191.5052 286.7724 207.5648 286.8768C209.082 286.8948 210.2992 288.1352 210.2888 289.6524Z" fill="#b0d9ff" stroke-width="1"></path><path d="M203.7392 241.1804C209.622 248.2124 188.578 253.5704 188.578 253.5704L177.2284 256.3084C175.0292 256.832 174.2216 259.54 175.7748 261.1828C176.0832 261.5088 176.4624 261.76 176.8832 261.9168C225.2276 280.0812 247.0096 252.648 247.0096 252.648Q247.8468 251.5744 248.57 250.4632C246.3636 247.9348 243.0492 246.6616 239.7176 247.0632L223.0336 249.0964C222.3604 243.5436 217.3248 239.5796 211.7688 240.2296L203.7768 241.204" fill="#b0d9ff" stroke-width="1"></path><path d="M203.7392 241.1804C209.622 248.2124 188.578 253.5704 188.578 253.5704L177.2284 256.3084C175.0292 256.832 174.2216 259.54 175.7748 261.1828C176.0832 261.5088 176.4624 261.76 176.8832 261.9168C225.2276 280.0812 247.0096 252.648 247.0096 252.648Q247.8468 251.5744 248.57 250.4632C246.3636 247.9348 243.0492 246.6616 239.7176 247.0632L223.0336 249.0964C222.3604 243.5436 217.3248 239.5796 211.7688 240.2296L203.7768 241.204" fill="none" stroke="#020064" stroke-linecap="round" stroke-linejoin="round" stroke-width="1"></path></svg>